<svg xmlns="http://www.w3.org/2000/svg" viewBox="0 0 1000 300" width="1000" height="300" role="img" aria-label="Natsuki Subaru, Front-End Developer">
<title>Natsuki Subaru, Front-End Developer</title>
<defs>
<linearGradient id="bg" x1="0" y1="0" x2="1" y2="1"><stop offset="0" stop-color="#0d1018"/><stop offset="1" stop-color="#080a10"/></linearGradient>
<linearGradient id="edge" x1="0" y1="0" x2="1" y2="0"><stop offset="0" stop-color="#00f0ff" stop-opacity=".55"/><stop offset=".5" stop-color="#1f2637"/><stop offset="1" stop-color="#a78bfa" stop-opacity=".55"/></linearGradient>
<radialGradient id="gc"><stop offset="0" stop-color="#00f0ff" stop-opacity=".16"/><stop offset="1" stop-color="#00f0ff" stop-opacity="0"/></radialGradient>
<radialGradient id="gv"><stop offset="0" stop-color="#a78bfa" stop-opacity=".22"/><stop offset="1" stop-color="#a78bfa" stop-opacity="0"/></radialGradient>
<linearGradient id="scan" x1="0" x2="1"><stop offset="0" stop-color="#00f0ff" stop-opacity="0"/><stop offset=".85" stop-color="#00f0ff" stop-opacity=".16"/><stop offset="1" stop-color="#00f0ff" stop-opacity=".65"/></linearGradient>
<clipPath id="card"><rect width="1000" height="300" rx="18"/></clipPath>
<g id="bf0"><g><animateTransform attributeName="transform" type="scale" values="1 1;0.28 1;1 1" keyTimes="0;.5;1" calcMode="spline" keySplines=".4 0 .6 1;.4 0 .6 1" dur="0.85s" repeatCount="indefinite"/><path d="M0 -2C-3 -16-22 -20-26 -9C-28 -1-14 3 0 -2Z"/><path d="M0 -2C3 -16 22 -20 26 -9C28 -1 14 3 0 -2Z"/><path d="M0 1C-8 6-19 12-14 20C-9 24-2 12 0 1Z"/><path d="M0 1C8 6 19 12 14 20C9 24 2 12 0 1Z"/></g><path d="M0 -8L0 14" fill="none" stroke-width="1.6" stroke-linecap="round" stroke="currentColor"/></g>
<g id="bf1"><g><animateTransform attributeName="transform" type="scale" values="1 1;0.28 1;1 1" keyTimes="0;.5;1" calcMode="spline" keySplines=".4 0 .6 1;.4 0 .6 1" dur="1.0s" repeatCount="indefinite"/><path d="M0 -2C-3 -16-22 -20-26 -9C-28 -1-14 3 0 -2Z"/><path d="M0 -2C3 -16 22 -20 26 -9C28 -1 14 3 0 -2Z"/><path d="M0 1C-8 6-19 12-14 20C-9 24-2 12 0 1Z"/><path d="M0 1C8 6 19 12 14 20C9 24 2 12 0 1Z"/></g><path d="M0 -8L0 14" fill="none" stroke-width="1.6" stroke-linecap="round" stroke="currentColor"/></g>
<g id="bf2"><g><animateTransform attributeName="transform" type="scale" values="1 1;0.28 1;1 1" keyTimes="0;.5;1" calcMode="spline" keySplines=".4 0 .6 1;.4 0 .6 1" dur="0.7s" repeatCount="indefinite"/><path d="M0 -2C-3 -16-22 -20-26 -9C-28 -1-14 3 0 -2Z"/><path d="M0 -2C3 -16 22 -20 26 -9C28 -1 14 3 0 -2Z"/><path d="M0 1C-8 6-19 12-14 20C-9 24-2 12 0 1Z"/><path d="M0 1C8 6 19 12 14 20C9 24 2 12 0 1Z"/></g><path d="M0 -8L0 14" fill="none" stroke-width="1.6" stroke-linecap="round" stroke="currentColor"/></g>
<g id="bf3"><g><animateTransform attributeName="transform" type="scale" values="1 1;0.28 1;1 1" keyTimes="0;.5;1" calcMode="spline" keySplines=".4 0 .6 1;.4 0 .6 1" dur="0.92s" repeatCount="indefinite"/><path d="M0 -2C-3 -16-22 -20-26 -9C-28 -1-14 3 0 -2Z"/><path d="M0 -2C3 -16 22 -20 26 -9C28 -1 14 3 0 -2Z"/><path d="M0 1C-8 6-19 12-14 20C-9 24-2 12 0 1Z"/><path d="M0 1C8 6 19 12 14 20C9 24 2 12 0 1Z"/></g><path d="M0 -8L0 14" fill="none" stroke-width="1.6" stroke-linecap="round" stroke="currentColor"/></g>
</defs>
<g clip-path="url(#card)">
<rect width="1000" height="300" fill="url(#bg)"/>
<g stroke="#ffffff" stroke-opacity=".035"><animateTransform attributeName="transform" type="translate" from="0 0" to="40 40" dur="12s" repeatCount="indefinite"/><line x1="-40" y1="-40" x2="-40" y2="340"/><line x1="0" y1="-40" x2="0" y2="340"/><line x1="40" y1="-40" x2="40" y2="340"/><line x1="80" y1="-40" x2="80" y2="340"/><line x1="120" y1="-40" x2="120" y2="340"/><line x1="160" y1="-40" x2="160" y2="340"/><line x1="200" y1="-40" x2="200" y2="340"/><line x1="240" y1="-40" x2="240" y2="340"/><line x1="280" y1="-40" x2="280" y2="340"/><line x1="320" y1="-40" x2="320" y2="340"/><line x1="360" y1="-40" x2="360" y2="340"/><line x1="400" y1="-40" x2="400" y2="340"/><line x1="440" y1="-40" x2="440" y2="340"/><line x1="480" y1="-40" x2="480" y2="340"/><line x1="520" y1="-40" x2="520" y2="340"/><line x1="560" y1="-40" x2="560" y2="340"/><line x1="600" y1="-40" x2="600" y2="340"/><line x1="640" y1="-40" x2="640" y2="340"/><line x1="680" y1="-40" x2="680" y2="340"/><line x1="720" y1="-40" x2="720" y2="340"/><line x1="760" y1="-40" x2="760" y2="340"/><line x1="800" y1="-40" x2="800" y2="340"/><line x1="840" y1="-40" x2="840" y2="340"/><line x1="880" y1="-40" x2="880" y2="340"/><line x1="920" y1="-40" x2="920" y2="340"/><line x1="960" y1="-40" x2="960" y2="340"/><line x1="1000" y1="-40" x2="1000" y2="340"/><line x1="1040" y1="-40" x2="1040" y2="340"/><line x1="-40" y1="-40" x2="1040" y2="-40"/><line x1="-40" y1="0" x2="1040" y2="0"/><line x1="-40" y1="40" x2="1040" y2="40"/><line x1="-40" y1="80" x2="1040" y2="80"/><line x1="-40" y1="120" x2="1040" y2="120"/><line x1="-40" y1="160" x2="1040" y2="160"/><line x1="-40" y1="200" x2="1040" y2="200"/><line x1="-40" y1="240" x2="1040" y2="240"/><line x1="-40" y1="280" x2="1040" y2="280"/><line x1="-40" y1="320" x2="1040" y2="320"/></g>
<circle cx="170" cy="160" r="300" fill="url(#gc)"><animate attributeName="opacity" values=".6;1;.6" dur="9s" repeatCount="indefinite"/></circle>
<circle cx="860" cy="90" r="280" fill="url(#gv)"><animate attributeName="opacity" values="1;.6;1" dur="9s" repeatCount="indefinite"/></circle>
<g transform="translate(700 296)"><g opacity="0"><animateMotion path="M0 0C60 -50 -30 -100 30 -160S80 -250 40 -310" dur="15s" begin="-2s" repeatCount="indefinite"/><animate attributeName="opacity" values="0;.8;.8;0" keyTimes="0;.12;.85;1" dur="15s" begin="-2s" repeatCount="indefinite"/><g transform="scale(1.0)" fill="#a78bfa" color="#a78bfa"><use href="#bf0"/></g></g></g>
<g transform="translate(812 300)"><g opacity="0"><animateMotion path="M0 0C-50 -60 40 -120 -20 -190S30 -260 10 -330" dur="19s" begin="-9s" repeatCount="indefinite"/><animate attributeName="opacity" values="0;.8;.8;0" keyTimes="0;.12;.85;1" dur="19s" begin="-9s" repeatCount="indefinite"/><g transform="scale(0.75)" fill="#00f0ff" color="#00f0ff"><use href="#bf1"/></g></g></g>
<g transform="translate(890 298)"><g opacity="0"><animateMotion path="M0 0C40 -40 -50 -110 10 -170S-30 -240 20 -320" dur="17s" begin="-5s" repeatCount="indefinite"/><animate attributeName="opacity" values="0;.8;.8;0" keyTimes="0;.12;.85;1" dur="17s" begin="-5s" repeatCount="indefinite"/><g transform="scale(1.2)" fill="#a78bfa" color="#a78bfa"><use href="#bf2"/></g></g></g>
<g transform="translate(950 300)"><g opacity="0"><animateMotion path="M0 0C-30 -50 30 -110 -10 -180S20 -250 0 -320" dur="13s" begin="-11s" repeatCount="indefinite"/><animate attributeName="opacity" values="0;.8;.8;0" keyTimes="0;.12;.85;1" dur="13s" begin="-11s" repeatCount="indefinite"/><g transform="scale(0.6)" fill="#e8f0f2" color="#e8f0f2"><use href="#bf3"/></g></g></g>
<text x="56" y="84" font-family="'Yu Gothic','Hiragino Sans','Noto Sans CJK JP','Noto Sans JP',sans-serif" font-size="19" fill="#a78bfa" letter-spacing="7">ナツキ・スバル</text>
<text x="56" y="176" font-family="Georgia,'Times New Roman','Noto Serif','DejaVu Serif',serif" font-size="76" font-weight="700" textLength="610" lengthAdjust="spacing" fill="#e8f0f2">Natsuki Subaru</text>
<text x="56" y="176" font-family="Georgia,'Times New Roman','Noto Serif','DejaVu Serif',serif" font-size="76" font-weight="700" textLength="610" lengthAdjust="spacing" fill="#00f0ff" opacity="0"><animate attributeName="opacity" dur="15s" repeatCount="indefinite" calcMode="discrete" values="0;0.8;0;0.8;0;0" keyTimes="0;0.96333;0.97;0.97667;0.98133;1" /><animate attributeName="x" dur="15s" repeatCount="indefinite" calcMode="discrete" values="56;50;56;45.8;56;56" keyTimes="0;0.96333;0.97;0.97667;0.98133;1" />Natsuki Subaru</text>
<text x="56" y="176" font-family="Georgia,'Times New Roman','Noto Serif','DejaVu Serif',serif" font-size="76" font-weight="700" textLength="610" lengthAdjust="spacing" fill="#a78bfa" opacity="0"><animate attributeName="opacity" dur="15s" repeatCount="indefinite" calcMode="discrete" values="0;0.8;0;0.8;0;0" keyTimes="0;0.96333;0.97;0.97667;0.98133;1" /><animate attributeName="x" dur="15s" repeatCount="indefinite" calcMode="discrete" values="56;62;56;66.2;56;56" keyTimes="0;0.96333;0.97;0.97667;0.98133;1" />Natsuki Subaru</text>
<rect x="56" y="216" width="3" height="28" rx="1.5" fill="#00f0ff"/>
<g opacity="0"><animate attributeName="opacity" dur="15s" repeatCount="indefinite" values="0;0;1;1;0;0" keyTimes="0;0.00007;0.03333;0.16667;0.19999;1" /><animateTransform attributeName="transform" type="translate" dur="15s" repeatCount="indefinite" values="0 9;0 9;0 0;0 0;0 -9;0 -9" keyTimes="0;0.00007;0.03333;0.16667;0.2;1"/><text x="76" y="242" font-family="ui-monospace,'SF Mono','Cascadia Code',Consolas,Menlo,'DejaVu Sans Mono',monospace" font-size="26" fill="#00f0ff">Front-End Developer</text></g>
<g opacity="0"><animate attributeName="opacity" dur="15s" repeatCount="indefinite" values="0;0;1;1;0;0" keyTimes="0;0.2;0.23333;0.36667;0.39999;1" /><animateTransform attributeName="transform" type="translate" dur="15s" repeatCount="indefinite" values="0 9;0 9;0 0;0 0;0 -9;0 -9" keyTimes="0;0.2;0.23333;0.36667;0.4;1"/><text x="76" y="242" font-family="ui-monospace,'SF Mono','Cascadia Code',Consolas,Menlo,'DejaVu Sans Mono',monospace" font-size="26" fill="#00f0ff">Open Source Enthusiast</text></g>
<g opacity="0"><animate attributeName="opacity" dur="15s" repeatCount="indefinite" values="0;0;1;1;0;0" keyTimes="0;0.4;0.43333;0.56667;0.59999;1" /><animateTransform attributeName="transform" type="translate" dur="15s" repeatCount="indefinite" values="0 9;0 9;0 0;0 0;0 -9;0 -9" keyTimes="0;0.4;0.43333;0.56667;0.6;1"/><text x="76" y="242" font-family="ui-monospace,'SF Mono','Cascadia Code',Consolas,Menlo,'DejaVu Sans Mono',monospace" font-size="26" fill="#00f0ff">Gagal, belajar, ulangi</text></g>
<g opacity="0"><animate attributeName="opacity" dur="15s" repeatCount="indefinite" values="0;0;1;1;0;0" keyTimes="0;0.6;0.63333;0.76667;0.79999;1" /><animateTransform attributeName="transform" type="translate" dur="15s" repeatCount="indefinite" values="0 9;0 9;0 0;0 0;0 -9;0 -9" keyTimes="0;0.6;0.63333;0.76667;0.8;1"/><text x="76" y="242" font-family="ui-monospace,'SF Mono','Cascadia Code',Consolas,Menlo,'DejaVu Sans Mono',monospace" font-size="26" fill="#00f0ff">Witch of Greed</text></g>
<g opacity="0"><animate attributeName="opacity" dur="15s" repeatCount="indefinite" values="0;0;1;1;0;0" keyTimes="0;0.8;0.83333;0.96667;0.99993;1" /><animateTransform attributeName="transform" type="translate" dur="15s" repeatCount="indefinite" values="0 9;0 9;0 0;0 0;0 -9;0 -9" keyTimes="0;0.8;0.83333;0.96667;0.99993;1"/><text x="76" y="242" font-family="ui-monospace,'SF Mono','Cascadia Code',Consolas,Menlo,'DejaVu Sans Mono',monospace" font-size="26" fill="#00f0ff">Problem Solver</text></g>
<text x="56" y="280" font-family="'Yu Gothic','Hiragino Sans','Noto Sans CJK JP','Noto Sans JP',sans-serif" font-size="12" fill="#8994a8" letter-spacing="3">死に戻り</text>
<rect x="-140" y="0" width="140" height="300" fill="url(#scan)"><animate attributeName="x" dur="15s" repeatCount="indefinite" values="-140;-140;1020;1020" keyTimes="0;0.95333;0.99667;1" /></rect>
</g>
<rect x=".5" y=".5" width="999" height="299" rx="18" fill="none" stroke="url(#edge)"/>
</svg>
